<svg width="221" height="268" viewBox="0 0 221 268" fill="none" xmlns="http://www.w3.org/2000/svg">
<path d="M6.91138 43.1078V23.3094C6.91138 18.0586 8.98821 13.0228 12.685 9.3099C16.3818 5.597 21.3957 3.51111 26.6238 3.51111H46.3362" stroke="black" stroke-width="6" stroke-linecap="round" stroke-linejoin="round"/>
<path d="M46.3362 164.538H26.6238C21.3957 164.538 16.3818 162.452 12.685 158.739C8.98821 155.026 6.91138 149.99 6.91138 144.739L6.91138 124.941" stroke="black" stroke-width="6" stroke-linecap="round" stroke-linejoin="round"/>
<path d="M211.92 124.941V144.739C211.92 149.99 209.844 155.026 206.147 158.739C202.45 162.452 197.436 164.538 192.208 164.538H172.496" stroke="black" stroke-width="6" stroke-linecap="round" stroke-linejoin="round"/>
<path d="M172.496 3.51111L192.208 3.51111C197.436 3.51111 202.45 5.597 206.147 9.3099C209.844 13.0228 211.92 18.0586 211.92 23.3094V43.1078" stroke="black" stroke-width="6" stroke-linecap="round" stroke-linejoin="round"/>
<path d="M91.3097 10.14C73.0867 16.0062 63.0407 26.096 56.1486 45.4543C55.3309 47.8008 54.63 57.0694 54.3964 66.9245L54.046 84.2884L50.5415 87.5734C46.453 91.4451 43.9999 98.8365 45.0513 104.351C46.1026 110.217 49.9575 115.731 53.5787 116.552C58.1345 117.608 59.5362 119.016 60.4707 123.24C61.6389 128.989 68.5309 142.833 73.0867 148.934C77.1752 154.213 77.292 154.8 77.292 164.42C77.292 173.923 77.1752 174.51 74.7221 174.979C49.4902 179.907 36.1734 184.365 26.7115 191.053C21.4548 194.924 14.446 203.254 11.4088 209.355C10.2407 211.819 8.83889 214.635 8.25482 215.808C4.86721 222.495 -1.09031 260.977 0.545085 265.318C1.24597 267.078 10.5911 267.196 110.701 267.196H220.039L219.455 255.229C217.002 208.299 202.166 188.002 163.734 178.616C156.959 176.974 150.301 175.683 148.899 175.683C143.175 175.683 142.708 174.862 142.708 165.007C142.708 156.325 142.942 155.386 146.68 150.224C151.819 142.95 158.011 130.866 160.23 123.592C161.749 118.547 162.566 117.608 165.72 116.787C176.934 113.854 178.92 94.6128 168.874 86.6348C165.954 84.4057 165.954 83.9364 166.655 75.6064C169.225 47.8008 158.945 23.7495 140.372 14.3636C127.639 7.91086 104.626 5.91635 91.3097 10.14ZM129.274 16.9447C144.927 21.8723 156.492 35.5992 159.179 52.3764C161.865 69.271 161.865 68.919 158.361 90.9758C157.66 95.6687 156.258 94.9648 153.221 88.512C151.119 84.0537 150.067 79.9474 147.497 66.5725C146.796 62.7009 146.446 62.4662 142.357 62.8182C139.087 63.0528 136.049 62.1143 130.326 58.8292L122.733 54.6056L118.411 58.0079C114.556 61.0583 105.211 66.5725 103.692 66.5725C103.458 66.5725 103.458 64.4607 103.809 61.9969C105.094 52.8457 101.239 48.0354 97.0336 53.315C94.9309 55.6615 82.1982 61.8796 79.0442 61.8796C75.5398 61.8796 74.138 63.2875 73.3203 67.3938C72.3858 71.6174 66.8955 85.9309 64.7929 89.4506C64.092 90.7412 63.1575 91.4451 62.6902 90.9758C62.2229 90.6238 61.4053 84.875 60.938 78.4222C57.0831 34.6606 76.8247 12.1345 116.425 14.7156C120.28 14.9503 126.12 16.0062 129.274 16.9447ZM96.5663 66.1033C94.3468 71.5001 94.3468 74.6679 96.4495 75.4891C98.5521 76.3104 113.504 70.0923 119.345 65.9859L123.667 62.9355L127.989 65.5166C130.326 66.9245 134.414 68.6844 137.101 69.5056C141.89 70.9135 142.124 71.0308 143.409 77.8356C146.68 94.1435 152.871 104.116 159.646 104.116C161.632 104.116 162.449 102.943 163.618 98.2499C164.903 93.4396 165.487 92.501 166.772 93.6743C168.991 95.5514 169.926 101.77 168.524 105.641C167.356 108.809 164.786 110.451 159.062 111.625C156.609 112.094 155.908 113.267 154.74 118.429C152.403 128.285 144.46 143.067 137.685 149.872C134.18 153.392 128.573 157.498 124.251 159.493C117.826 162.543 115.957 163.012 109.065 162.543C90.0247 161.487 74.2548 145.766 66.0778 119.955C63.7415 112.329 63.2743 111.742 59.8867 111.39C52.6442 110.686 48.5557 99.0711 53.8123 94.2609C56.0318 92.2664 56.1486 92.2664 56.9663 96.7247C58.6017 106.111 62.4566 106.58 67.4796 97.8979C72.3858 89.4506 73.4371 87.1041 77.0583 77.249C80.0955 69.0363 80.446 68.567 84.8849 67.1592C87.4548 66.4552 91.1929 64.93 93.0619 63.8741C98.0849 61.1757 98.5521 61.4103 96.5663 66.1033ZM100.772 168.175C110.35 171.108 123.2 169.113 131.494 163.364C133.83 161.722 136.049 160.431 136.283 160.431C136.634 160.431 136.867 163.834 136.867 168.175V175.801L129.041 179.555C122.032 182.84 119.812 183.309 111.168 183.309C104.159 183.309 99.4867 182.605 95.3982 181.08C84.8849 176.974 84.3008 176.387 84.3008 168.057V160.549L89.4406 163.482C92.2442 165.007 97.384 167.236 100.772 168.175ZM84.0672 183.075C98.4353 192.226 122.733 192.109 137.101 182.957C140.255 180.846 140.839 180.846 151.819 182.84C183.242 188.589 198.195 198.444 206.021 218.741C209.058 226.836 212.096 241.267 213.38 253.351L213.965 260.156H110.584H7.20349V255.111C7.20349 249.597 10.9415 229.3 13.2778 222.026C15.9646 213.813 20.1699 207.126 26.361 200.908C35.2389 191.991 46.453 187.181 69.115 182.605C74.6052 181.549 79.161 180.611 79.3946 180.494C79.5114 180.494 81.6141 181.667 84.0672 183.075Z" fill="black"/>
</svg>
